<svg width="539" height="536" viewBox="0 0 539 536" fill="none" xmlns="http://www.w3.org/2000/svg">
<path d="M269.498 446.282C368.444 446.282 448.644 366.469 448.644 267.998C448.644 169.528 368.444 89.7145 269.498 89.7145C170.551 89.7145 90.3516 169.528 90.3516 267.998C90.3516 366.469 170.551 446.282 269.498 446.282ZM172.784 245.906C176.439 242.943 181.041 241.394 185.711 241.461C191.87 241.461 197.69 243.953 202.089 248.196L242.629 288.204L333.387 198.153C337.786 193.842 343.674 191.35 349.9 191.35C354.638 191.35 359.172 192.899 362.895 195.796C367.632 199.5 370.542 205.09 370.948 211.085C371.354 217.214 369.121 223.208 364.857 227.586L254.067 337.035C254.067 337.035 253.796 337.305 253.661 337.439C247.502 343.366 237.621 343.232 231.597 337.035L171.093 277.226C166.829 273.05 164.595 267.325 164.866 261.33C165.204 255.269 168.047 249.678 172.717 245.839L172.784 245.906Z" fill="#111111"/>
<path d="M480.656 377.514C472.534 377.447 465.022 381.69 460.961 388.695C407.969 471.809 306.856 511.076 211.294 485.616C90.4193 453.489 18.6796 329.896 50.9625 209.67C51.0302 209.401 51.0978 209.132 51.1655 208.862C53.602 196.739 45.6835 184.952 33.4336 182.527H31.877C21.9282 183.201 13.1976 189.262 9.13691 198.355C3.11349 220.918 0.000256271 244.155 0.000256271 267.459C-0.20278 415.569 120.266 535.794 269.092 535.996C361.609 536.468 447.832 489.455 497.305 411.662C504.344 401.492 501.704 387.617 491.552 380.613C488.304 378.592 484.514 377.514 480.724 377.514H480.656Z" fill="#111111"/>
<path d="M269.773 -0.000244141H266.389C176.917 0.9427 93.6722 46.204 44.4696 120.629C44.3343 120.831 44.1989 121.033 44.0636 121.168C36.7542 131.204 38.92 145.213 49.0041 152.487C52.3881 154.575 56.2458 155.653 60.2388 155.586C68.5633 155.72 76.211 151.208 80.2041 144.001C133.806 62.7729 233.7 24.9204 328.044 50.1105C448.783 82.3053 520.455 205.898 488.105 326.056C488.037 326.326 487.97 326.595 487.902 326.932C485.465 339.055 493.452 350.842 505.634 353.2C506.649 353.402 507.732 353.469 508.747 353.469C518.493 353.267 526.953 346.868 529.795 337.574C535.819 315.145 538.864 292.043 538.932 268.806C539.202 120.629 418.734 0.269168 269.773 -0.000244141Z" fill="#111111"/>
</svg>
